# xmcd
#
# Track frame offsets: 
#        150
#        6825
#        9547
#        13657
#        17237
#        23857
#        31422
#        37385
#        42565
#        49952
#        55867
#        60142
#        70622
#        81335
#        87455
#        93430
#        103265
#        108622
#        113452
#        123052
#        129850
#        134902
#        141317
#        151312
#        157752
#        163520
#        173197
#        183917
#        188580
#        199875
#        209007
#        214815
#        220387
#        226060
#        233240
#        241097
#        249187
#        258452
#        273012
#        279992
#        286637
#        293002
#        302637
#
# Disc length: 4080 seconds
#
# Revision: 0
# Processed by: cddbd v1.5.2PL0 Copyright (c) Steve Scherf et al.
# Submitted via: ExactAudioCopy v0.95b4
#
DISCID=580fee2b
DTITLE=Various Artist - Hillbilly and Rockabilly
DYEAR=1900
DGENRE=Country
TTITLE0=Housey and Mannery - Intro
TTITLE1=Charline Arthur - Burn That Candle
TTITLE2=Eddie Bond - Baby, Baby, Baby
TTITLE3=Sonny Burgess - Find My Baby for Me
TTITLE4=Dorsey Burnette - Great Shakin' Fever and Buckeye Road
TTITLE5=Ray Campi - The Woods are Full of Them Now
TTITLE6=Jimmy Heap - Ethyl in My Gas Tank
TTITLE7=Jenks 'Tex' Carman - Hillbilly Hula
TTITLE8=Leon Chappel - True Blue Popa and I'm Checkin' You Out
TTITLE9=Joey Castle - That Ain't Nothing but Right
TTITLE10=Joe Clay - Sixteen Chicks
TTITLE11=Melvin Endsley - I Like Your Kind of Love
TTITLE12=Werly Fairburn - Telephone Baby and I Guess I'm Crazy
TTITLE13=Farmer Boys (The) - Cool Down Mama
TTITLE14=Marvin Rainwater - The Last Time
TTITLE15=Terry Fell - Play the Music Louder and Fa So La
TTITLE16=Buck Griffin - Watching the 7:10 Roll By
TTITLE17=Curtis Gordon - I'm Sitting on Top of the World
TTITLE18=Jack Guthrie - Oklahoma Hills and When the Cactus is in Bloom
TTITLE19=Roy Hogsed - Cocaine Blues
TTITLE20=Jimmy and Johnny - Love Me
TTITLE21=Sid King - Sag, Drag and Fall
TTITLE22=Jimmy Logsdon - I Wanna Be Mama'd and Where the Rio De Rosa Flo
TTITLE22=ws
TTITLE23=Big Bill Lister - There's a Tear in My Beer
TTITLE24=Frankie Miller - Paint, Powder and Perfume
TTITLE25=Moon Mulligan - Jenny Lee and Merrill Moore - House of Blue Lig
TTITLE25=hts
TTITLE26=Jimmy Murphy - Electricity and My Gal Dottie
TTITLE27=Terry Noland - The World's A-Rockin'
TTITLE28=Dave Rich - Rosie Let's Get Cozy and Lonely Street
TTITLE29=Weldon Rogers - So Long, Good Luck, Goodbye
TTITLE30=Lew Williams - Cat Talk
TTITLE31=Ronnie Self - Go, Go Cannibal
TTITLE32=Andy Starr - Rockin' Rollin' Stone
TTITLE33=Bobby Lee Trammell - Shirley Lee
TTITLE34=Gordon Terry - Long Black Limousine
TTITLE35=Jimmy Swan - I Had a Dream and Honky Tonkin' in Mississippi
TTITLE36=Onie Wheeler - Run 'Em Off and Walkin' Shoes
TTITLE37=Jimmy Work - That's What Makes the Jukebox Play and Tennessee B
TTITLE37=order
TTITLE38=Leon Payne - I Love You Because
TTITLE39=Ole Rasmussen - Sleepy Eyed John
TTITLE40=Jimmy Johnson - Cat Daddy
TTITLE41=Ted Daigle - Mary Lou and Stoltz Brothers (The) - Rock 'n Roll 
TTITLE41=Riot
TTITLE42=Housely and Manney - Outro
EXTD=
EXTT0=
EXTT1=
EXTT2=
EXTT3=
EXTT4=
EXTT5=
EXTT6=
EXTT7=
EXTT8=
EXTT9=
EXTT10=
EXTT11=
EXTT12=
EXTT13=
EXTT14=
EXTT15=
EXTT16=
EXTT17=
EXTT18=
EXTT19=
EXTT20=
EXTT21=
EXTT22=
EXTT23=
EXTT24=
EXTT25=
EXTT26=
EXTT27=
EXTT28=
EXTT29=
EXTT30=
EXTT31=
EXTT32=
EXTT33=
EXTT34=
EXTT35=
EXTT36=
EXTT37=
EXTT38=
EXTT39=
EXTT40=
EXTT41=
EXTT42=
PLAYORDER=
